<svg height="496pt" viewBox="0 0 496 496" width="496pt" xmlns="http://www.w3.org/2000/svg"><path d="m256 104h176v104h-176zm0 0" fill="#f0bc5e"/><path d="m472 16h-80v16h80c4.414062 0 8 3.585938 8 8v432c0 4.414062-3.585938 8-8 8h-304c-4.414062 0-8-3.585938-8-8v-264h16v256h288v-416h-71.625v16h55.625v384h-256v-240h16c17.648438 0 32-14.351562 32-32s-14.351562-32-32-32h-16v-80h56v-16h-72v96h-16v-104c0-4.414062 3.585938-8 8-8h80v-16h-80c-13.230469 0-24 10.769531-24 24v104h-27.246094c-9.738281 0-19.347656 2.550781-27.792968 7.382812l-43.089844 24.617188h-45.871094v144h53.574219l33.890625 22.59375c9.230468 6.160156 19.976562 9.40625 31.0625 9.40625h25.472656v120c0 13.230469 10.769531 24 24 24h304c13.230469 0 24-10.769531 24-24v-432c0-13.230469-10.769531-24-24-24zm-344.566406 192h16.566406v128h-25.472656c-7.917969 0-15.589844-2.320312-22.183594-6.71875l-37.917969-25.28125h-42.425781v-112h34.128906l46.773438-26.726562c6.035156-3.449219 12.898437-5.273438 19.851562-5.273438h91.246094c8.824219 0 16 7.175781 16 16s-7.175781 16-16 16h-96v8c0 22.054688-17.945312 40-40 40v16c28.167969 0 51.535156-20.894531 55.433594-48zm0 0"/><path d="m232 432h176v-23.855469c0-17.769531-11.929688-33.578125-29.015625-38.472656l-27-7.710937-.007813-4.058594c14.503907-10.125 24.023438-26.910156 24.023438-45.902344v-16c0-30.871094-25.128906-56-56-56s-56 25.128906-56 56v16c0 18.976562 9.511719 35.753906 24 45.886719v4.082031l-26.992188 7.703125c-17.078124 4.886719-29.007812 20.703125-29.007812 38.472656zm48-120v-16c0-22.054688 17.945312-40 40-40s40 17.945312 40 40v16c0 22.054688-17.945312 40-40 40s-40-17.945312-40-40zm55.71875 53.710938-15.71875 20.953124-15.71875-20.953124c4.992188 1.464843 10.261719 2.289062 15.71875 2.289062s10.726562-.824219 15.71875-2.289062zm-87.71875 42.433593c0-10.65625 7.160156-20.152343 17.40625-23.082031l27.496094-7.855469 27.097656 36.128907 27.097656-36.128907 27.496094 7.855469c10.246094 2.929688 17.40625 12.425781 17.40625 23.082031v7.855469h-144zm0 0"/><path d="m208 96h16v16h-16zm0 0"/><path d="m240 96h192v16h-192zm0 0"/><path d="m256 128h176v16h-176zm0 0"/><path d="m256 160h176v16h-176zm0 0"/><path d="m416 192h16v16h-16zm0 0"/><path d="m256 192h144v16h-144zm0 0"/><path d="m376 80h-112c-13.230469 0-24-10.769531-24-24v-32c0-13.230469 10.769531-24 24-24h112c13.230469 0 24 10.769531 24 24v32c0 13.230469-10.769531 24-24 24zm0 0" fill="#f0bc5e"/><path d="m272 32h16v16h-16zm0 0"/><path d="m352 32h16v16h-16zm0 0"/></svg>