<svg id="_x33_0" enable-background="new 0 0 64 64" height="512" viewBox="0 0 64 64" width="512" xmlns="http://www.w3.org/2000/svg"><g><g><path d="m18 1c-6.617 0-12 5.383-12 12v9.414l.293.293c1.478 1.479 3.444 2.293 5.536 2.293h2.579c-2.039-1.223-3.408-3.449-3.408-6v-4.91c0-1.894 1.07-3.625 2.764-4.472l1.236-.618c0 1.657 1.343 3 3 3h3c2.209 0 4 1.791 4 4v3c0 2.551-1.369 4.777-3.408 6h2.579c2.091 0 4.057-.814 5.536-2.293l.293-.293v-9.414c0-6.617-5.383-12-12-12z" fill="#f0bc5e"/></g><g><path d="m48.456 18.135-.073-.009-5.984.191-.16.018c-5.313 1.038-8.239 4.47-8.239 9.665 0 1.212.257 2.396.763 3.521l.266.589h.121c.38-1.219 1.505-2.11 2.85-2.11h1l.001.071c.007-1.886 1.075-3.609 2.763-4.453l.19-.095.005.006c.778 1.021 1.968 1.715 3.337 1.829 1.652.138 3.492.291 4.96.413 1.307.109 2.347 1.049 2.648 2.272v-.043h1.096c1.345 0 2.47.891 2.851 2.11h.121l.265-.589c.506-1.124.763-2.309.763-3.521 0-5.569-3.479-9.165-9.544-9.865z" fill="#f0bc5e"/></g><g><path d="m58.272 45.313c-1.258-.839-2.652-1.39-4.144-1.639l-3.37-.562-.459-1.377c1.678-1.075 2.925-2.757 3.437-4.735h.264c2.206 0 4-1.794 4-4s-1.794-4-4-4h-.418c-.597-1.226-1.789-2.104-3.244-2.225l-4.959-.414c-1.036-.086-1.993-.611-2.625-1.438l-.501-.668-.936.469c-1.713.856-2.872 2.441-3.207 4.276h-.11c-2.206 0-4 1.794-4 4 0 .345.058.674.14.994-.797-1.875-2.117-3.514-3.868-4.681-1.258-.839-2.652-1.39-4.144-1.639l-3.37-.562-.459-1.377c2.222-1.423 3.701-3.907 3.701-6.735v-3c0-2.757-2.243-5-5-5h-3c-1.103 0-2-.897-2-2s.897-2 2-2v-2c-1.986 0-3.639 1.456-3.948 3.356l-.734.368c-2.047 1.022-3.318 3.078-3.318 5.366v4.91c0 2.828 1.479 5.312 3.701 6.735l-.459 1.377-3.37.562c-1.492.249-2.886.8-4.144 1.639-2.96 1.974-4.728 5.276-4.728 8.834v8.853h30.767c-1.762 1.932-2.767 4.466-2.767 7.147v8.853h34v-8.853c0-3.558-1.768-6.86-4.728-8.834zm-6.811-.056-1.008 2.447-2.429-.972 2.234-1.676zm-9.719-.2 2.234 1.676-2.429.972-1.008-2.447zm7.081-1.424-2.823 2.117-2.823-2.118.344-1.031c.781.256 1.613.399 2.479.399s1.698-.143 2.48-.398zm7.177-10.633c0 1.103-.897 2-2 2v-4c1.103 0 2 .897 2 2zm-16-2.91c0-1.342.656-2.565 1.744-3.304.936.898 2.161 1.459 3.468 1.568l4.959.414c1.043.087 1.829.943 1.829 1.992v4.24c0 3.309-2.691 6-6 6s-6-2.691-6-6zm-2 .91v4c-1.103 0-2-.897-2-2s.897-2 2-2zm0 6h.263c.512 1.979 1.759 3.66 3.437 4.735l-.459 1.377-3.37.562c-1.007.168-1.965.485-2.872.924v-6.452c0-1.168-.208-2.302-.568-3.377.656 1.317 2.002 2.231 3.569 2.231zm-14.539-7.743-1.008 2.447-2.429-.972 2.234-1.676zm-11.461-10.257v-4.91c0-1.525.847-2.896 2.211-3.578l.071-.036c.59 1.478 2.034 2.524 3.718 2.524h3c1.654 0 3 1.346 3 3v3c0 3.309-2.691 6-6 6s-6-2.691-6-6zm6 8c.866 0 1.698-.143 2.48-.398l.344 1.031-2.824 2.117-2.823-2.118.344-1.031c.781.256 1.613.399 2.479.399zm-4.258 2.057 2.234 1.676-2.429.972-1.008-2.447zm-10.742 9.09c0-2.888 1.435-5.568 3.837-7.17 1.021-.681 2.152-1.128 3.363-1.33l.314-.052 1.938 4.701 4.548-1.819v2.523h2v-2.523l4.547 1.819 1.938-4.701.314.052c1.211.202 2.342.649 3.363 1.33 2.403 1.602 3.838 4.282 3.838 7.17v6.853h-4v-8h-2v8h-18v-8h-2v8h-4zm58 22.853h-4v-8h-2v8h-18v-8h-2v8h-4v-6.853c0-2.888 1.435-5.568 3.837-7.17 1.021-.681 2.152-1.128 3.363-1.33l.314-.052 1.938 4.701 4.548-1.819v2.523h2v-2.523l4.547 1.819 1.938-4.701.314.052c1.211.202 2.342.649 3.363 1.33 2.403 1.602 3.838 4.282 3.838 7.17z"/><path d="m43.895 35.553-1.789.895.105.211c.722 1.444 2.174 2.341 3.789 2.341s3.067-.897 3.789-2.342l.105-.211-1.789-.895-.105.212c-.381.762-1.147 1.236-2 1.236s-1.619-.474-2-1.236z"/><circle cx="43" cy="32" r="1"/><circle cx="49" cy="32" r="1"/><path d="m45 59h8v-6h-8zm2-4h4v2h-4z"/><path d="m15.895 19.553-1.789.895.105.211c.722 1.444 2.174 2.341 3.789 2.341s3.067-.897 3.789-2.342l.105-.211-1.789-.895-.105.212c-.381.762-1.147 1.236-2 1.236s-1.619-.474-2-1.236z"/><circle cx="15" cy="16" r="1"/><circle cx="21" cy="16" r="1"/><path d="m25 37h-8v6h8zm-2 4h-4v-2h4z"/></g></g></svg>