<svg id="Layer_3" enableBackground="new 0 0 64 64" height="24" viewBox="0 0 64 64" width="24" xmlns="http://www.w3.org/2000/svg"><path d="m63 1h-62v50h37.878l8.728 9.812c1.236 1.391 3.012 2.188 4.873 2.188 3.596 0 6.521-2.926 6.521-6.521 0-1.86-.797-3.637-2.188-4.873l-.68-.606h6.868zm-2 2v6h-58v-6zm-7.117 46-13.317-11.846-1.329 1.494 16.246 14.452c.964.857 1.517 2.088 1.517 3.379 0 2.493-2.028 4.521-4.521 4.521-1.29 0-2.521-.553-3.378-1.517l-14.452-16.247-1.494 1.33 3.944 4.434h-34.099v-38h58v38z"/><path d="m24.25 23.22-.499-1.937c.731-.188 1.488-.283 2.249-.283v2c-.593 0-1.182.074-1.75.22z"/><path d="m18.205 34.501c-.788-1.363-1.205-2.919-1.205-4.501 0-3.311 1.811-6.346 4.725-7.922l.951 1.76c-2.267 1.226-3.676 3.587-3.676 6.162 0 1.23.324 2.441.936 3.499z"/><path d="m26 47c-9.374 0-17-7.626-17-17s7.626-17 17-17 17 7.626 17 17-7.626 17-17 17zm0-29c-6.617 0-12 5.383-12 12s5.383 12 12 12 12-5.383 12-12-5.383-12-12-12z" fill="#f0bc5e"/><path d="m26 43c-7.168 0-13-5.832-13-13s5.832-13 13-13 13 5.832 13 13-5.832 13-13 13zm0-24c-6.065 0-11 4.935-11 11s4.935 11 11 11 11-4.935 11-11-4.935-11-11-11z"/><path d="m40 43.586h2v2.828h-2z" transform="matrix(.707 -.707 .707 .707 -19.811 42.172)"/><path d="m52 59c1.654 0 3-1.346 3-3s-1.346-3-3-3-3 1.346-3 3 1.346 3 3 3zm0-4c.551 0 1 .448 1 1s-.449 1-1 1-1-.448-1-1 .449-1 1-1z"/><path d="m45 47.172h2v5.657h-2z" transform="matrix(.707 -.707 .707 .707 -21.882 47.172)"/><path d="m5 5h2v2h-2z"/><path d="m9 5h2v2h-2z"/><path d="m13 5h2v2h-2z"/></svg>